<?xml version="1.0" encoding="UTF-8"?>
<svg id="Layer_1" xmlns="http://www.w3.org/2000/svg" version="1.1" viewBox="0 0 25 25">
  <!-- Generator: Adobe Illustrator 29.8.2, SVG Export Plug-In . SVG Version: 2.1.1 Build 3)  -->
  <defs>
    <style>
      .st0 {
        fill: #1e1e1e;
      }
    </style>
  </defs>
  <path class="st0" d="M11.9,20.4c.3.3.8.3,1.2,0l7.3-7.3c.2-.2.2-.5.2-.6s0-.4-.2-.6l-7.3-7.3c-.3-.3-.8-.3-1.2,0l-7.3,7.3c-.2.2-.2.5-.2.6s0,.4.2.6l7.3,7.3ZM12.5,24.6c-1.2,0-2.4-.5-3.4-1.4h0L1.8,15.9c-.9-.9-1.4-2.1-1.4-3.4s.5-2.5,1.4-3.4L9.1,1.8C11,0,14,0,15.9,1.8l7.3,7.3c.9.9,1.4,2.1,1.4,3.4s-.5,2.5-1.4,3.4l-7.3,7.3c-.9.9-2.1,1.4-3.4,1.4"/>
</svg>