<?xml version="1.0" encoding="UTF-8"?>
<svg id="Layer_1" xmlns="http://www.w3.org/2000/svg" version="1.1" viewBox="0 0 25 25">
  <!-- Generator: Adobe Illustrator 29.8.2, SVG Export Plug-In . SVG Version: 2.1.1 Build 3)  -->
  <defs>
    <style>
      .st0 {
        fill: #1e1e1e;
      }

      .st1 {
        fill: #d6ff66;
      }
    </style>
  </defs>
  <circle class="st0" cx="12.5" cy="12.5" r="12.1"/>
  <path class="st1" d="M12.1,18.7c.2.2.7.2.9,0l5.7-5.7c.2-.2.2-.4.2-.4s0-.3-.2-.4l-5.7-5.7c-.2-.2-.7-.2-.9,0l-5.7,5.7c-.2.2-.2.4-.2.4s0,.3.2.4l5.7,5.7ZM12.5,21.9c-1,0-1.9-.4-2.6-1.1h0l-5.7-5.7c-.7-.7-1.1-1.6-1.1-2.6s.4-1.9,1.1-2.6l5.7-5.7c1.4-1.4,3.8-1.4,5.2,0l5.7,5.7c.7.7,1.1,1.6,1.1,2.6s-.4,1.9-1.1,2.6l-5.7,5.7c-.7.7-1.7,1.1-2.6,1.1"/>
</svg>