<?xml version="1.0" encoding="UTF-8"?>
<svg id="Layer_1" data-name="Layer 1" xmlns="http://www.w3.org/2000/svg" viewBox="0 0 2316.27 1906.45">
  <defs>
    <style>
      .cls-1 {
        fill: #1e1e1e;
      }
    </style>
  </defs>
  <g>
    <path class="cls-1" d="M1121.86,952.66c9.5,9.49,24.95,9.49,34.45,0l218.91-218.92c6.21-6.21,7.13-13.45,7.13-17.22s-.93-11.01-7.13-17.22l-218.91-218.91c-9.5-9.5-24.95-9.49-34.45,0l-218.91,218.91c-6.21,6.21-7.14,13.45-7.14,17.22s.93,11.02,7.14,17.22l218.91,218.92ZM1139.08,1077.51c-36.4,0-72.8-13.86-100.5-41.56h0l-218.91-218.92c-26.85-26.85-41.63-62.54-41.63-100.51s14.78-73.66,41.63-100.5l218.91-218.91c55.42-55.42,145.6-55.42,201.01,0l218.92,218.91c26.85,26.85,41.63,62.54,41.63,100.5s-14.78,73.66-41.63,100.51l-218.92,218.92c-27.71,27.71-64.11,41.56-100.5,41.56"/>
    <path class="cls-1" d="M609.01,1475.64c-8.01,8.13-17.72,14.44-29.25,18.94-12.38,4.86-25.25,7.29-38.6,7.29s-24.76-2.19-35.69-6.31c-10.8-4.25-20.15-10.2-28.16-17.72-7.89-7.65-14.08-16.76-18.45-27.19-4.37-10.56-6.55-21.97-6.55-34.23s2.18-23.67,6.55-33.99c4.37-10.44,10.56-19.42,18.45-26.95,8.01-7.65,17.36-13.6,28.16-17.72,10.92-4.25,22.82-6.31,35.69-6.31s25.97,2.3,37.87,7.04c11.41,4.37,21.73,11.04,30.71,19.9,6.56-15.05,15.29-28.28,26.22-39.32-11.9-11.05-25.85-19.91-41.87-26.22-17.48-7.03-36.05-10.44-55.83-10.44s-37.38,3.4-54.13,10.2c-16.63,6.79-31.07,16.14-43.46,28.16-12.26,11.9-21.85,26.09-28.89,42.48-6.92,16.26-10.44,33.98-10.44,53.16s3.51,36.9,10.44,53.4c7.04,16.51,16.63,30.71,28.89,42.73,12.38,11.9,26.95,21.36,43.7,28.16,16.87,6.8,34.96,10.2,54.38,10.2s37.87-3.52,55.35-10.44c15.54-6.31,29.25-14.69,40.91-25.37-.49-.49-.98-.97-1.46-1.45-10.32-10.68-18.57-23.55-24.52-37.99"/>
    <path class="cls-1" d="M837.11,1448.58c-5.82,8.62-12.26,16.26-19.42,22.94-9.71,8.86-20.39,15.66-32.04,20.39-11.65,4.61-24.16,7.04-37.39,7.04-12.38,0-23.43-1.94-33.5-5.83-10.07-3.88-18.69-9.35-25.73-16.26-7.16-7.04-12.63-15.54-16.51-25.49-3.88-10.07-5.83-21.12-5.83-33.01,0-12.62,2.07-24.27,6.32-34.95,4.13-10.69,10.08-19.91,17.72-27.43,7.53-7.65,16.76-13.6,27.43-17.72,10.68-4.25,22.46-6.31,35.45-6.31s24.03,2.06,34.47,6.31c10.32,4.13,19.06,10.32,26.22,18.45,7.16,8.01,12.63,17.72,16.75,29.13,4.01,11.28,6.07,24.03,6.07,38.35v24.4ZM879.59,1368.1c-6.31-17.96-15.42-33.38-27.19-46.12-11.9-12.87-26.1-22.58-42.73-29.38-16.75-6.8-35.2-10.19-55.59-10.19s-39.21,3.4-56.32,10.19c-17.23,6.79-31.93,16.14-44.19,28.16-12.38,11.9-21.84,26.22-28.64,42.72-6.8,16.51-10.2,34.59-10.2,54.38,0,18.45,2.91,35.45,8.98,51.22,2.67,6.92,5.71,13.35,9.35,19.42,4.5,7.65,9.71,14.69,15.66,20.88q.12.12.25.12c10.68,11.17,23.43,19.79,38.35,26.1,15.05,6.31,31.56,9.47,49.77,9.47,16.14,0,31.2-2.55,45.15-7.52,13.84-5.1,26.22-12.02,37.15-20.88,8.38-6.92,15.53-14.69,21.6-23.43v48.91h48.07v-113.12c0-22.7-3.16-42.97-9.47-60.93"/>
    <path class="cls-1" d="M1090.82,1345.05c-1.58,3.64-2.31,7.89-2.31,12.5,0,4,.61,7.64,1.82,10.8,1.09,3.16,3.27,6.43,6.43,9.83,3.16,3.28,7.65,6.91,13.35,10.92,5.7,4.12,12.99,8.86,22.09,14.56,10.32,5.71,19.18,11.41,26.46,17.11,7.4,5.71,13.35,11.42,17.85,17.24,4.49,5.95,7.77,12.02,9.83,18.33,1.94,6.32,3.04,13.23,3.04,20.51,0,10.08-1.83,19.19-5.34,27.2-3.52,8.01-8.5,14.81-15.06,20.51-6.43,5.7-14.43,10.07-23.79,12.98-9.34,3.04-19.78,4.61-31.07,4.61h-144.84v-47.7h125.3c5.34,0,10.19-.61,14.43-1.7,4.37-1.22,8.01-2.91,10.81-5.34,2.91-2.31,4.97-5.1,6.31-8.49,1.33-3.41,2.06-7.4,2.06-12.02,0-4.01-.61-7.66-1.82-10.81-1.21-3.15-3.41-6.43-6.8-9.83-3.28-3.28-7.76-6.92-13.47-10.92-5.7-4.01-12.86-8.86-21.61-14.57-10.32-5.7-19.18-11.29-26.34-16.87-7.15-5.46-12.98-11.17-17.47-16.99-4.61-5.83-7.9-11.9-9.83-18.08-2.06-6.19-3.04-12.99-3.04-20.28,0-3.88.25-7.65.85-11.29.3-2.37.77-4.65,1.39-6.86.85-3.11,2-6.08,3.35-8.93,3.64-8.01,8.86-14.92,15.53-20.87,3.81-3.33,8.06-6.23,12.74-8.68,3.52-1.84,7.28-3.44,11.29-4.8,9.36-3.16,19.91-4.74,31.56-4.74h84.86v47.09h-65.79c-5.95,0-11.17.49-15.53,1.47-4.37,1.08-7.9,2.67-10.81,5.1-2.79,2.3-4.97,5.33-6.43,8.98"/>
  </g>
  <rect class="cls-1" x="1247.42" y="1202.78" width="51.95" height="338.41"/>
  <g>
    <path class="cls-1" d="M1359.87,1203.27c-5.59-4.85-12.38-7.28-20.39-7.28-4.25,0-8.13.48-11.65,1.7-3.64,1.09-6.55,2.79-8.98,5.1-2.43,2.18-4.37,5.1-5.83,8.49-1.46,3.4-2.19,7.16-2.19,11.41,0,8.01,2.67,14.44,8.26,19.18,5.46,4.61,12.26,7.04,20.39,7.04,4.13,0,8.01-.73,11.65-1.94,3.52-1.34,6.56-3.16,8.98-5.34,2.43-2.31,4.37-5.1,5.83-8.26,1.45-3.27,2.18-6.8,2.18-10.68,0-8.13-2.79-14.57-8.25-19.42M1313.26,1541.19h51.95v-251.5h-51.95v251.5Z"/>
    <path class="cls-1" d="M1637.12,1365.43c-6.19-17.85-15.05-33.01-26.7-45.39-11.65-12.51-25.73-22.1-42.24-28.65-16.51-6.67-35.2-9.95-55.83-9.95s-39.33,3.28-55.59,9.95c-16.39,6.56-30.34,16.14-41.76,28.65-11.53,12.38-20.39,27.42-26.46,45.15-6.19,17.6-9.22,37.62-9.22,59.96v116.04h50.49v-118.47c0-14.93,1.82-28.04,5.59-39.32,3.64-11.41,8.98-21,16.02-28.89,6.92-8.01,15.53-13.96,25.73-17.96,10.19-4.13,21.73-6.07,34.71-6.07s24.52,1.95,34.72,6.07c10.2,4,18.69,9.95,25.73,17.96,6.92,7.89,12.38,17.48,16.26,28.89,3.88,11.29,5.83,24.4,5.83,39.32v118.47h51.95v-116.04c0-22.09-3.16-41.99-9.22-59.71"/>
    <path class="cls-1" d="M1708.7,1392.45c.12-.69.35-1.49.58-2.18,3.68-12.19,8.85-22.43,15.76-31.05,6.79-8.74,14.61-15.53,23.69-20.24,8.97-4.83,18.86-7.71,29.79-8.4,10.81-.92,22.08.46,33.81,4.02,9.66,2.99,18.28,7.02,25.88,12.3,7.48,5.18,13.92,11.16,19.21,18.06,5.18,6.9,9.2,14.49,11.62,22.78.46,1.61.8,3.22,1.26,4.83l-161.59-.11ZM1912.27,1383.71c-2.99-14.26-8.4-27.26-15.99-38.87-7.59-11.62-17.49-21.74-29.67-30.48-12.08-8.74-26.11-15.41-41.98-20.24-17.83-5.41-35.31-7.48-52.45-6.1-17.02,1.27-32.66,5.64-46.58,13.11-13.92,7.47-26.23,17.71-36.81,30.71-10.47,12.88-18.52,28.29-23.92,46.24-5.52,17.83-7.59,35.19-6.09,52.1,1.49,16.79,5.97,32.09,13.34,46.12,7.36,13.92,17.71,26.23,30.83,36.81,13.11,10.58,28.64,18.63,46.58,24.04,17.6,5.41,34.97,7.47,52.1,6.32,17.25-1.15,33.35-5.52,48.53-12.99l-11.61-40.6c-11.61,5.29-23.81,8.51-36.57,9.43-12.76.92-25.53-.46-38.19-4.37-11.73-3.57-21.85-8.85-30.48-15.87-8.63-6.9-15.3-14.95-20.01-24.15-4.14-7.94-6.78-16.68-7.82-26.11l208.06-.23c2.19-15.64,1.84-30.71-1.26-44.86"/>
    <path class="cls-1" d="M1045.09,1282.27c-5.55-.82-11.56-1.23-18.07-1.23-39.69,0-70.27,12.13-91.75,36.37-21.47,24.23-32.22,58.5-32.22,102.73v122.02h52.22v-120.55c0-14.96,1.71-28.14,5.13-39.53,3.42-11.38,8.54-20.9,15.37-28.55,6.85-7.64,15.13-13.42,24.89-17.33,4.56-1.82,9.46-3.22,14.66-4.19,1.02-5.56,2.79-10.95,5.38-16.41,4.38-9.59,10.74-18.15,18.92-25.44l.05-.05.06-.04c2.96-2.57,6.14-4.95,9.53-7.1-1.39-.26-2.79-.49-4.18-.7"/>
  </g>
</svg>