<?xml version="1.0" encoding="UTF-8"?>
<svg id="Layer_1" data-name="Layer 1" xmlns="http://www.w3.org/2000/svg" viewBox="0 0 2316.27 919.47">
  <defs>
    <style>
      .cls-1 {
        fill: #1e1e1e;
      }
    </style>
  </defs>
  <path class="cls-1" d="M843.88,528.57c-7.15,7.26-15.82,12.89-26.11,16.9-11.05,4.33-22.54,6.5-34.46,6.5s-22.1-1.95-31.86-5.63c-9.64-3.79-17.99-9.1-25.14-15.82-7.04-6.83-12.57-14.95-16.47-24.28-3.9-9.43-5.85-19.61-5.85-30.56s1.95-21.13,5.85-30.34c3.9-9.32,9.43-17.34,16.47-24.06,7.15-6.83,15.49-12.14,25.14-15.82,9.75-3.79,20.37-5.63,31.86-5.63s23.19,2.06,33.81,6.29c10.19,3.9,19.4,9.86,27.42,17.77,5.85-13.44,13.65-25.25,23.4-35.11-10.62-9.86-23.08-17.77-37.38-23.41-15.6-6.28-32.18-9.32-49.84-9.32s-33.37,3.03-48.33,9.1c-14.85,6.07-27.74,14.41-38.79,25.14-10.94,10.62-19.51,23.3-25.79,37.93-6.18,14.52-9.32,30.34-9.32,47.46s3.14,32.94,9.32,47.68c6.29,14.74,14.85,27.42,25.79,38.14,11.05,10.62,24.06,19.07,39.01,25.14,15.06,6.07,31.21,9.1,48.55,9.1s33.81-3.14,49.41-9.32c13.87-5.63,26.11-13.11,36.52-22.65-.43-.43-.87-.87-1.3-1.3-9.21-9.54-16.58-21.02-21.89-33.92Z"/>
  <path class="cls-1" d="M1085.44,432.57c-5.63-16.04-13.76-29.8-24.27-41.18-10.62-11.49-23.3-20.16-38.14-26.22-14.95-6.07-31.42-9.1-49.63-9.1s-35,3.03-50.28,9.1c-15.39,6.07-28.5,14.41-39.44,25.14-11.05,10.62-19.5,23.4-25.57,38.14-6.07,14.74-9.1,30.88-9.1,48.55,0,16.47,2.6,31.64,8.02,45.72,2.38,6.18,5.09,11.92,8.34,17.34,4.01,6.83,8.67,13.11,13.98,18.64q.11.11.22.11c9.54,9.97,20.91,17.66,34.24,23.3,13.44,5.63,28.17,8.45,44.43,8.45,14.41,0,27.85-2.28,40.31-6.72,12.35-4.55,23.41-10.73,33.16-18.64,7.48-6.18,13.87-13.11,19.29-20.91v43.67h42.91v-100.99c0-20.26-2.82-38.36-8.45-54.4ZM1047.52,504.41c-5.2,7.69-10.94,14.52-17.34,20.48-8.67,7.91-18.2,13.98-28.61,18.2-10.4,4.12-21.56,6.29-33.38,6.29-11.05,0-20.91-1.74-29.91-5.2-8.99-3.47-16.69-8.34-22.97-14.52-6.39-6.29-11.27-13.87-14.74-22.76-3.47-8.99-5.2-18.85-5.2-29.47,0-11.27,1.84-21.67,5.63-31.21,3.69-9.54,8.99-17.77,15.82-24.49,6.72-6.83,14.95-12.14,24.49-15.82,9.54-3.79,20.05-5.63,31.64-5.63s21.45,1.84,30.77,5.63c9.21,3.68,17.01,9.21,23.41,16.47,6.39,7.15,11.27,15.82,14.95,26.01,3.58,10.08,5.42,21.45,5.42,34.24v21.78Z"/>
  <path class="cls-1" d="M1274.01,411.99c-1.41,3.25-2.06,7.04-2.06,11.16,0,3.57.54,6.82,1.63,9.64.97,2.82,2.92,5.74,5.74,8.78,2.82,2.93,6.83,6.17,11.92,9.75,5.09,3.68,11.59,7.91,19.72,13,9.21,5.1,17.12,10.19,23.62,15.28,6.61,5.1,11.92,10.19,15.93,15.39,4.01,5.31,6.94,10.73,8.78,16.36,1.73,5.64,2.71,11.81,2.71,18.31,0,9-1.63,17.13-4.77,24.28-3.14,7.15-7.59,13.22-13.44,18.31-5.74,5.09-12.89,8.99-21.24,11.59-8.34,2.71-17.66,4.12-27.74,4.12h-129.3v-42.58h111.86c4.77,0,9.1-.55,12.89-1.52,3.9-1.09,7.15-2.6,9.65-4.77,2.6-2.06,4.44-4.55,5.63-7.58,1.19-3.04,1.84-6.61,1.84-10.73,0-3.58-.54-6.83-1.62-9.65-1.08-2.81-3.04-5.74-6.07-8.77-2.93-2.93-6.93-6.18-12.03-9.75-5.09-3.58-11.48-7.91-19.29-13.01-9.21-5.09-17.12-10.08-23.51-15.06-6.39-4.88-11.59-9.97-15.6-15.17-4.12-5.2-7.05-10.62-8.78-16.14-1.84-5.53-2.71-11.6-2.71-18.1,0-3.47.22-6.83.76-10.08.27-2.11.69-4.15,1.24-6.12.76-2.78,1.78-5.43,2.99-7.97,3.25-7.15,7.91-13.32,13.87-18.63,3.4-2.97,7.19-5.56,11.37-7.75,3.14-1.64,6.5-3.07,10.08-4.28,8.35-2.82,17.77-4.23,28.17-4.23h75.75v42.04h-58.73c-5.31,0-9.97.44-13.87,1.31-3.9.97-7.05,2.38-9.65,4.55-2.49,2.05-4.44,4.76-5.74,8.02Z"/>
  <path class="cls-1" d="M1413.81,284.98v302.11h46.38v-302.11h-46.38Z"/>
  <path class="cls-1" d="M1472.59,362.57v224.52h46.38v-224.52h-46.38ZM1514.2,285.42c-4.99-4.33-11.05-6.5-18.2-6.5-3.79,0-7.26.43-10.4,1.52-3.25.97-5.85,2.49-8.02,4.55-2.17,1.95-3.9,4.55-5.2,7.59-1.3,3.03-1.95,6.39-1.95,10.19,0,7.15,2.38,12.89,7.37,17.12,4.88,4.12,10.94,6.28,18.2,6.28,3.69,0,7.15-.65,10.4-1.73,3.14-1.19,5.85-2.82,8.02-4.77,2.17-2.06,3.9-4.55,5.2-7.37,1.3-2.93,1.95-6.07,1.95-9.53,0-7.26-2.49-13.01-7.37-17.34Z"/>
  <path class="cls-1" d="M1761.71,430.19c-5.53-15.93-13.44-29.47-23.84-40.53-10.4-11.16-22.97-19.72-37.71-25.57-14.74-5.96-31.42-8.89-49.85-8.89s-35.11,2.93-49.63,8.89c-14.63,5.85-27.09,14.41-37.28,25.57-10.29,11.05-18.2,24.49-23.62,40.31-5.53,15.71-8.24,33.59-8.24,53.53v103.59h45.08v-105.76c0-13.33,1.63-25.03,4.99-35.11,3.25-10.19,8.02-18.75,14.3-25.79,6.18-7.15,13.87-12.46,22.97-16.04,9.1-3.68,19.4-5.42,30.99-5.42s21.89,1.74,30.99,5.42c9.1,3.58,16.69,8.89,22.97,16.04,6.18,7.04,11.05,15.6,14.52,25.79,3.47,10.08,5.2,21.78,5.2,35.11v105.76h46.38v-103.59c0-19.72-2.82-37.49-8.24-53.31Z"/>
  <path class="cls-1" d="M2007.34,446.5c-2.67-12.73-7.5-24.33-14.27-34.7-6.78-10.37-15.61-19.41-26.49-27.21-10.78-7.8-23.31-13.76-37.48-18.07-15.91-4.83-31.52-6.68-46.82-5.44-15.2,1.13-29.16,5.03-41.58,11.71-12.42,6.67-23.41,15.81-32.86,27.41-9.35,11.5-16.53,25.26-21.36,41.28-4.93,15.92-6.78,31.42-5.44,46.51,1.33,14.99,5.34,28.65,11.91,41.17,6.57,12.42,15.81,23.41,27.52,32.86,11.7,9.45,25.57,16.63,41.58,21.46,15.71,4.83,31.21,6.67,46.51,5.65,15.4-1.03,29.78-4.93,43.33-11.6l-10.37-36.25c-10.37,4.73-21.25,7.6-32.65,8.42-11.4.82-22.79-.41-34.09-3.9-10.47-3.18-19.51-7.91-27.21-14.17-7.7-6.16-13.66-13.35-17.87-21.56-3.7-7.09-6.06-14.89-6.98-23.31l185.74-.21c1.95-13.97,1.64-27.42-1.13-40.05ZM1825.61,454.31c.1-.62.31-1.33.51-1.95,3.29-10.88,7.91-20.02,14.07-27.72,6.06-7.8,13.04-13.86,21.15-18.07,8.01-4.31,16.84-6.88,26.59-7.5,9.65-.82,19.71.41,30.19,3.59,8.62,2.67,16.32,6.26,23.1,10.99,6.67,4.62,12.42,9.96,17.15,16.12,4.62,6.16,8.21,12.94,10.37,20.33.41,1.44.72,2.88,1.13,4.31l-144.26-.1Z"/>
  <path class="cls-1" d="M459.82,612.98c-15.45,0-30.9-5.88-42.67-17.64h0l-92.93-92.93c-11.4-11.4-17.67-26.55-17.67-42.67s6.28-31.27,17.67-42.67l92.93-92.93c23.53-23.53,61.81-23.53,85.33,0l92.93,92.93c11.4,11.4,17.67,26.55,17.67,42.67s-6.28,31.27-17.67,42.67l-92.93,92.93c-11.76,11.76-27.22,17.64-42.67,17.64ZM452.51,559.98c4.03,4.03,10.59,4.03,14.62,0l92.93-92.93c2.64-2.63,3.03-5.71,3.03-7.31s-.39-4.68-3.03-7.31l-92.93-92.93c-4.03-4.03-10.59-4.03-14.62,0l-92.93,92.93c-2.64,2.63-3.03,5.71-3.03,7.31s.39,4.68,3.03,7.31l92.93,92.93Z"/>
  <path class="cls-1" d="M1233.19,355.95c-4.95-.73-10.32-1.1-16.13-1.1-35.44,0-62.74,10.83-81.91,32.47-19.17,21.63-28.76,52.22-28.76,91.71v108.93h46.62v-107.62c0-13.36,1.53-25.12,4.58-35.29,3.05-10.16,7.63-18.66,13.72-25.49,6.11-6.82,13.51-11.98,22.22-15.47,4.07-1.63,8.44-2.88,13.09-3.74.91-4.96,2.49-9.78,4.8-14.65,3.91-8.56,9.59-16.2,16.89-22.71l.05-.04.05-.04c2.64-2.3,5.48-4.42,8.51-6.34-1.24-.23-2.49-.44-3.73-.62Z"/>
</svg>