<?xml version="1.0" encoding="UTF-8"?>
<svg id="Layer_1" data-name="Layer 1" xmlns="http://www.w3.org/2000/svg" viewBox="0 0 2316.27 919.47">
  <defs>
    <style>
      .cls-1 {
        fill: #d7fe65;
      }
    </style>
  </defs>
  <path class="cls-1" d="M1158.13,612.98c-15.45,0-30.9-5.88-42.67-17.64h0l-92.93-92.93c-11.4-11.4-17.67-26.55-17.67-42.67s6.28-31.27,17.67-42.67l92.93-92.93c23.53-23.53,61.81-23.53,85.33,0l92.93,92.93c11.4,11.4,17.67,26.55,17.67,42.67s-6.28,31.27-17.67,42.67l-92.93,92.93c-11.76,11.76-27.22,17.64-42.67,17.64ZM1150.82,559.98c4.03,4.03,10.59,4.03,14.62,0l92.93-92.93c2.64-2.63,3.03-5.71,3.03-7.31s-.39-4.68-3.03-7.31l-92.93-92.93c-4.03-4.03-10.59-4.03-14.62,0l-92.93,92.93c-2.64,2.63-3.03,5.71-3.03,7.31s.39,4.68,3.03,7.31l92.93,92.93Z"/>
</svg>