<?xml version="1.0" encoding="UTF-8"?>
<svg id="Layer_1" data-name="Layer 1" xmlns="http://www.w3.org/2000/svg" viewBox="0 0 1920 1080">
  <defs>
    <style>
      .cls-1 {
        fill: #fff;
      }

      .cls-2 {
        fill: #d7fe65;
      }
    </style>
  </defs>
  <path class="cls-1" d="M676.16,614.63c-6.46,6.56-14.29,11.65-23.59,15.27-9.98,3.91-20.36,5.87-31.12,5.87s-19.96-1.76-28.77-5.09c-8.71-3.43-16.25-8.22-22.7-14.29-6.36-6.17-11.35-13.51-14.88-21.93-3.52-8.51-5.29-17.71-5.29-27.6s1.76-19.08,5.29-27.4c3.52-8.42,8.51-15.66,14.88-21.73,6.46-6.16,13.99-10.96,22.7-14.29,8.81-3.43,18.4-5.09,28.77-5.09s20.94,1.86,30.54,5.68c9.2,3.52,17.52,8.91,24.76,16.05,5.29-12.14,12.33-22.8,21.14-31.71-9.59-8.91-20.85-16.05-33.77-21.14-14.09-5.67-29.07-8.42-45.02-8.42s-30.14,2.74-43.65,8.22c-13.41,5.48-25.05,13.02-35.04,22.71-9.89,9.59-17.62,21.04-23.29,34.25-5.58,13.11-8.42,27.4-8.42,42.87s2.84,29.75,8.42,43.06c5.68,13.31,13.41,24.76,23.29,34.45,9.98,9.59,21.73,17.23,35.23,22.71,13.61,5.48,28.19,8.22,43.85,8.22s30.54-2.84,44.63-8.42c12.53-5.09,23.59-11.84,32.98-20.46-.39-.39-.78-.78-1.18-1.17-8.32-8.61-14.97-18.99-19.77-30.63Z"/>
  <path class="cls-1" d="M894.34,527.92c-5.09-14.48-12.43-26.91-21.92-37.19-9.59-10.37-21.04-18.21-34.45-23.68-13.51-5.48-28.38-8.22-44.83-8.22s-31.61,2.74-45.41,8.22c-13.9,5.48-25.74,13.02-35.63,22.71-9.98,9.59-17.62,21.14-23.1,34.45-5.48,13.31-8.22,27.89-8.22,43.85,0,14.87,2.35,28.58,7.24,41.3,2.15,5.58,4.6,10.77,7.54,15.66,3.62,6.16,7.83,11.84,12.63,16.83q.1.1.2.1c8.61,9,18.89,15.95,30.93,21.04,12.14,5.09,25.45,7.64,40.13,7.64,13.02,0,25.15-2.06,36.41-6.07,11.16-4.11,21.14-9.69,29.95-16.83,6.75-5.58,12.53-11.84,17.42-18.89v39.44h38.76v-91.21c0-18.3-2.54-34.65-7.63-49.13ZM860.09,592.8c-4.7,6.95-9.89,13.12-15.66,18.5-7.83,7.14-16.44,12.63-25.84,16.44-9.4,3.72-19.48,5.68-30.15,5.68-9.98,0-18.89-1.57-27.01-4.7-8.12-3.13-15.07-7.53-20.75-13.11-5.78-5.68-10.18-12.53-13.31-20.55-3.13-8.12-4.7-17.03-4.7-26.62,0-10.18,1.66-19.57,5.09-28.19,3.33-8.61,8.12-16.05,14.29-22.12,6.07-6.17,13.51-10.96,22.12-14.29,8.61-3.43,18.11-5.09,28.58-5.09s19.38,1.66,27.8,5.09c8.32,3.33,15.37,8.32,21.14,14.88,5.77,6.46,10.18,14.29,13.51,23.49,3.23,9.1,4.89,19.38,4.89,30.93v19.67Z"/>
  <path class="cls-1" d="M1064.66,509.33c-1.27,2.94-1.86,6.36-1.86,10.08,0,3.22.49,6.16,1.47,8.71.88,2.55,2.64,5.18,5.18,7.93,2.55,2.65,6.17,5.57,10.77,8.81,4.6,3.32,10.47,7.14,17.81,11.74,8.32,4.61,15.46,9.2,21.33,13.8,5.97,4.61,10.77,9.2,14.39,13.9,3.62,4.8,6.27,9.69,7.93,14.78,1.56,5.09,2.45,10.67,2.45,16.54,0,8.13-1.47,15.47-4.31,21.93-2.84,6.46-6.86,11.94-12.14,16.54-5.18,4.6-11.64,8.12-19.18,10.47-7.53,2.45-15.95,3.72-25.06,3.72h-116.79v-38.46h101.03c4.31,0,8.22-.5,11.64-1.37,3.52-.98,6.46-2.35,8.72-4.31,2.35-1.86,4.01-4.11,5.08-6.85,1.07-2.75,1.66-5.97,1.66-9.69,0-3.23-.49-6.17-1.46-8.72-.98-2.54-2.75-5.18-5.48-7.92-2.65-2.65-6.26-5.58-10.87-8.81-4.6-3.23-10.37-7.14-17.42-11.75-8.32-4.6-15.46-9.1-21.23-13.6-5.77-4.41-10.47-9.01-14.09-13.7-3.72-4.7-6.37-9.59-7.93-14.58-1.66-4.99-2.45-10.48-2.45-16.35,0-3.13.2-6.17.69-9.1.24-1.91.62-3.75,1.12-5.53.69-2.51,1.61-4.9,2.7-7.2,2.94-6.46,7.14-12.03,12.53-16.83,3.07-2.68,6.49-5.02,10.27-7,2.84-1.48,5.87-2.77,9.1-3.87,7.54-2.55,16.05-3.82,25.44-3.82h68.42v37.97h-53.05c-4.8,0-9,.4-12.53,1.18-3.52.88-6.37,2.15-8.72,4.11-2.25,1.85-4.01,4.3-5.18,7.24Z"/>
  <path class="cls-1" d="M1190.93,394.62v272.87h41.89v-272.87h-41.89Z"/>
  <path class="cls-1" d="M1244.02,464.69v202.79h41.89v-202.79h-41.89ZM1281.6,395.01c-4.5-3.91-9.98-5.87-16.44-5.87-3.43,0-6.56.39-9.4,1.37-2.94.88-5.29,2.25-7.24,4.11-1.96,1.76-3.52,4.11-4.7,6.85-1.18,2.74-1.76,5.77-1.76,9.2,0,6.46,2.15,11.65,6.66,15.46,4.4,3.72,9.89,5.67,16.44,5.67,3.33,0,6.46-.59,9.4-1.57,2.84-1.08,5.29-2.54,7.24-4.31,1.96-1.86,3.52-4.11,4.7-6.66,1.17-2.64,1.76-5.48,1.76-8.61,0-6.56-2.25-11.75-6.66-15.66Z"/>
  <path class="cls-1" d="M1505.16,525.76c-4.99-14.39-12.14-26.62-21.53-36.6-9.4-10.08-20.75-17.81-34.06-23.1-13.31-5.38-28.38-8.03-45.02-8.03s-31.71,2.64-44.82,8.03c-13.21,5.29-24.47,13.02-33.67,23.1-9.3,9.98-16.44,22.12-21.34,36.41-4.99,14.19-7.44,30.34-7.44,48.35v93.57h40.71v-95.52c0-12.04,1.47-22.61,4.5-31.71,2.94-9.2,7.24-16.93,12.92-23.29,5.58-6.46,12.53-11.25,20.75-14.48,8.22-3.33,17.52-4.89,27.99-4.89s19.77,1.57,27.99,4.89c8.22,3.23,15.07,8.03,20.75,14.48,5.58,6.36,9.98,14.09,13.11,23.29,3.13,9.1,4.7,19.67,4.7,31.71v95.52h41.89v-93.57c0-17.81-2.54-33.86-7.44-48.15Z"/>
  <path class="cls-1" d="M1727.01,540.5c-2.41-11.5-6.77-21.98-12.89-31.34-6.12-9.37-14.1-17.53-23.93-24.58-9.74-7.05-21.05-12.43-33.85-16.32-14.37-4.36-28.47-6.03-42.29-4.92-13.73,1.02-26.34,4.55-37.56,10.57s-21.14,14.28-29.68,24.76c-8.44,10.39-14.93,22.81-19.29,37.28-4.45,14.37-6.12,28.38-4.92,42.01,1.21,13.54,4.82,25.87,10.76,37.19,5.94,11.22,14.28,21.14,24.85,29.68,10.57,8.53,23.09,15.02,37.56,19.38,14.19,4.36,28.19,6.03,42.01,5.1,13.91-.93,26.89-4.45,39.14-10.48l-9.37-32.74c-9.37,4.27-19.2,6.86-29.49,7.61-10.29.74-20.59-.37-30.79-3.52-9.46-2.88-17.62-7.14-24.58-12.8-6.96-5.56-12.33-12.06-16.14-19.47-3.34-6.4-5.47-13.45-6.31-21.05l167.76-.19c1.76-12.61,1.48-24.76-1.02-36.17ZM1562.87,547.55c.09-.56.28-1.2.46-1.76,2.97-9.83,7.14-18.08,12.71-25.04,5.47-7.05,11.78-12.52,19.1-16.32,7.23-3.89,15.21-6.21,24.02-6.77,8.72-.74,17.81.37,27.27,3.24,7.79,2.41,14.74,5.66,20.87,9.92,6.03,4.17,11.22,9,15.49,14.56,4.17,5.56,7.42,11.69,9.37,18.36.37,1.3.65,2.6,1.02,3.89l-130.3-.09Z"/>
  <path class="cls-2" d="M329.28,690.87c-13.96,0-27.91-5.31-38.54-15.94h0l-83.94-83.94c-10.29-10.29-15.96-23.98-15.96-38.54s5.67-28.24,15.96-38.54l83.94-83.94c21.25-21.25,55.82-21.25,77.07,0l83.94,83.94c10.29,10.29,15.96,23.98,15.96,38.54s-5.67,28.24-15.96,38.54l-83.94,83.94c-10.62,10.62-24.58,15.94-38.54,15.94ZM322.67,643c3.64,3.64,9.57,3.64,13.21,0l83.94-83.94c2.38-2.38,2.74-5.16,2.74-6.6s-.36-4.22-2.74-6.6l-83.94-83.94c-3.64-3.64-9.57-3.64-13.21,0l-83.94,83.94c-2.38,2.38-2.74,5.16-2.74,6.6s.36,4.22,2.74,6.6l83.94,83.94Z"/>
  <path class="cls-1" d="M1027.79,458.71c-4.47-.66-9.32-.99-14.57-.99-32.01,0-56.67,9.78-73.98,29.33-17.31,19.54-25.98,47.17-25.98,82.83v98.39h42.11v-97.2c0-12.07,1.38-22.69,4.14-31.87,2.75-9.18,6.89-16.85,12.39-23.02,5.52-6.16,12.2-10.82,20.07-13.97,3.68-1.47,7.62-2.6,11.82-3.38.82-4.48,2.25-8.83,4.34-13.23,3.53-7.73,8.66-14.63,15.25-20.51l.05-.04.04-.04c2.38-2.08,4.95-3.99,7.69-5.73-1.12-.21-2.25-.4-3.37-.56Z"/>
</svg>