<?xml version="1.0" encoding="UTF-8"?>
<svg version="1.1" xmlns="http://www.w3.org/2000/svg" width="2520" height="1000">
<path d="M0 0 C5.70264128 4.47078009 10.77996048 9.52465181 15.89808655 14.64041138 C16.95992908 15.69461485 18.02216593 16.74842127 19.08476257 17.80186462 C21.94703366 20.64235908 24.80286172 23.48924302 27.65681577 26.33809137 C29.44610404 28.12371677 31.23667897 29.90804189 33.02767754 31.69195175 C39.29274922 37.93258984 45.55213359 44.17887411 51.80677795 50.42996216 C57.60997435 56.22952551 63.42616923 62.01582552 69.248447 67.79622662 C74.2699762 72.78291779 79.28169683 77.77933028 84.28618473 82.7831229 C87.26502094 85.76117106 90.24758783 88.73521792 93.24034309 91.6992836 C96.05794568 94.49047184 98.86301709 97.2937006 101.65947342 100.10606956 C102.6789575 101.12734954 103.7026047 102.1444962 104.73101234 103.15678978 C114.64681477 112.92680736 122.12781278 123.5228031 125.99745178 137.0461731 C126.33389709 138.20632935 126.33389709 138.20632935 126.67713928 139.3899231 C130.72367078 156.01950458 127.51850213 172.91684981 119.95057678 188.0071106 C114.24216694 196.88939631 106.96316001 204.37618507 99.51747131 211.80081177 C98.48779224 212.83485017 97.45852789 213.86930167 96.42964172 214.90412903 C93.66152299 217.6855142 90.88716355 220.46059007 88.11113214 223.23407531 C85.78343029 225.56069952 83.45872953 227.89031139 81.13395393 230.21985894 C75.64563094 235.71923322 70.15205208 241.21331741 64.65516663 246.70413208 C59.00581174 252.34744326 53.36570853 257.99988164 47.73002541 263.65684336 C42.86894339 268.53559551 38.00201549 273.40846234 33.1304673 278.27676374 C30.2306061 281.1748214 27.332958 284.07500324 24.44099808 286.98094749 C21.72094434 289.71366438 18.99360136 292.43889894 16.26073456 295.15880013 C15.26575698 296.15143119 14.27326832 297.14656515 13.28363419 298.14452362 C5.52229604 305.9663646 -2.51637357 312.81504398 -12.62754822 317.3586731 C-14.16282166 318.06443481 -14.16282166 318.06443481 -15.72911072 318.78445435 C-29.70656288 324.17194486 -49.13952743 324.84227702 -63.20957947 319.35476685 C-64.13125916 318.92293091 -65.05293884 318.49109497 -66.00254822 318.0461731 C-67.05829041 317.58339966 -68.11403259 317.12062622 -69.20176697 316.64382935 C-87.2038098 307.93041453 -101.01297352 290.2455961 -115.04942322 276.2727356 C-116.15157765 275.17595738 -117.25373271 274.07917979 -118.35588837 272.9824028 C-122.94283517 268.41699445 -127.52837877 263.85018435 -132.11024094 259.27967262 C-138.61773953 252.78842043 -145.13361576 246.30584394 -151.66136241 239.834952 C-156.28714757 235.24806046 -160.90312626 230.65144164 -165.51213765 226.04769647 C-168.2497998 223.31365532 -170.99132774 220.5838015 -173.7435379 217.86439896 C-192.7985685 199.02545778 -207.29726754 183.06953965 -207.56504822 154.9211731 C-207.579953 153.75376587 -207.59485779 152.58635864 -207.61021423 151.38357544 C-207.48546607 140.89144264 -205.24930713 130.94260713 -199.81504822 121.8586731 C-199.05127869 120.53802856 -199.05127869 120.53802856 -198.27207947 119.19070435 C-191.99664352 110.49582321 -184.09469677 102.98005231 -176.54844666 95.39920044 C-175.53357549 94.37640143 -174.51887627 93.35343176 -173.5043335 92.33030701 C-170.21051424 89.01060372 -166.91154895 85.69604112 -163.61192322 82.3821106 C-162.46652675 81.23134285 -161.3211334 80.08057201 -160.1757431 78.92979813 C-155.40802001 74.14050656 -150.63888031 69.35263307 -145.86602402 64.56845665 C-139.07072245 57.75691817 -132.28406598 50.93701993 -125.50916076 44.10519254 C-120.71765845 39.27483188 -115.91646065 34.45424258 -111.10812593 29.64063799 C-108.24832325 26.77720718 -105.39273537 23.90986828 -102.5475235 21.03193283 C-99.86951287 18.32355508 -97.17952499 15.62764257 -94.48045921 12.9402523 C-93.03971642 11.4998306 -91.61128067 10.04713059 -90.18347168 8.59388733 C-81.82290851 0.31161218 -72.42920607 -6.42408656 -61.06504822 -9.8913269 C-59.85977478 -10.27160034 -58.65450134 -10.65187378 -57.41270447 -11.04367065 C-37.70183085 -16.30441928 -16.29064001 -12.34418647 0 0 Z M-47.65222168 45.96868896 C-48.69600825 46.92783644 -48.69600825 46.92783644 -49.76088142 47.90636063 C-53.87153913 51.83024291 -57.94418448 55.78780326 -61.98277283 59.78591919 C-62.95754687 60.7478485 -63.93246562 61.70963119 -64.90751648 62.67127991 C-73.73685384 71.38558374 -82.53761819 80.12898784 -91.33177853 88.87877464 C-97.82133222 95.33501496 -104.32378141 101.77766551 -110.84372896 108.20321405 C-115.442967 112.73810764 -120.0267786 117.2882381 -124.59955984 121.84980643 C-127.32547264 124.56817223 -130.05772652 127.27935151 -132.80694389 129.97416306 C-135.38963176 132.50631978 -137.95265024 135.05685436 -140.50204468 137.62251472 C-141.88276661 139.00234838 -143.28326492 140.36230461 -144.68432617 141.72148132 C-149.03782429 146.14081236 -152.30637983 149.59451854 -152.32679844 156.03409386 C-151.77267059 159.47263939 -150.30757689 161.57271918 -148.00254822 164.0461731 C-147.02491264 165.09861835 -147.02491264 165.09861835 -146.02752686 166.17232513 C-143.50239387 168.80970531 -140.92796426 171.39088619 -138.34043884 173.96707153 C-137.35086357 174.95935996 -136.36171361 175.95207267 -135.37295532 176.94517517 C-132.69791333 179.62930243 -130.01662292 182.30710392 -127.3338604 184.98351192 C-124.52335915 187.78893598 -121.7177563 190.59925199 -118.91136169 193.40878296 C-114.20071918 198.12305891 -109.48588674 202.83311354 -104.7686615 207.540802 C-99.31624709 212.98232043 -93.87109198 218.43102336 -88.42962694 223.88348937 C-83.75294848 228.56924338 -79.07238433 233.2510892 -74.38854933 237.92968965 C-71.59295472 240.72216766 -68.79872566 243.51597604 -66.00799561 246.31331635 C-63.38594963 248.94113946 -60.75905968 251.56402204 -58.12835121 254.18317223 C-56.70403542 255.60358292 -55.28463814 257.0289203 -53.86538696 258.45439148 C-53.01583939 259.29829941 -52.16629181 260.14220734 -51.29100037 261.01168823 C-50.55507408 261.74686047 -49.8191478 262.4820327 -49.06092072 263.23948288 C-46.15072062 265.79384563 -43.96509695 266.92062326 -40.12754822 267.4211731 C-32.14508963 266.46327806 -26.44882949 258.77486914 -21.08164978 253.38406372 C-20.08936136 252.39448845 -19.09664864 251.40533849 -18.10354614 250.4165802 C-15.41941889 247.7415382 -12.7416174 245.0602478 -10.06520939 242.37748528 C-7.25978533 239.56698403 -4.44946933 236.76138118 -1.63993835 233.95498657 C3.0743376 229.24434405 7.78439223 224.52951162 12.49208069 219.81228638 C17.93359912 214.35987197 23.38230205 208.91471686 28.83476806 203.47325182 C33.52052207 198.79657335 38.20236788 194.11600921 42.88096833 189.43217421 C45.67344634 186.6365796 48.46725473 183.84235053 51.26459503 181.05162048 C53.89241814 178.42957451 56.51530073 175.80268456 59.13445091 173.17197609 C60.55486161 171.7476603 61.98019898 170.32826302 63.40567017 168.90901184 C64.24957809 168.05946426 65.09348602 167.20991669 65.96296692 166.33462524 C66.69813915 165.59869896 67.43331139 164.86277267 68.19076157 164.10454559 C71.00226576 160.90138278 72.40582982 158.26613742 72.22998047 153.9614563 C71.24032314 147.10496302 66.02649069 143.01523308 61.2769928 138.40164185 C60.24390846 137.3691777 59.21258035 136.33495375 58.18287659 135.29911804 C55.39277269 132.50246749 52.57867084 129.73117416 49.75936627 126.96400452 C46.81141336 124.06246205 43.88583143 121.1385329 40.9576416 118.21707153 C36.04173707 113.31861359 31.11164365 108.43484593 26.17103577 103.56130981 C19.19783604 96.68274156 12.25038345 89.77861727 5.30803025 82.86893654 C-3.98734161 73.62005336 -13.28982701 64.37807328 -22.62247467 55.16679192 C-23.63354256 54.16826225 -24.64379258 53.1689037 -25.65317726 52.16867256 C-27.02729934 50.80743975 -28.40483528 49.44965566 -29.78256226 48.09207153 C-30.55372596 47.33037659 -31.32488966 46.56868164 -32.11942196 45.78390503 C-35.14137982 42.99526956 -37.68517741 42.51410225 -41.81350613 42.58226585 C-44.50888829 43.15347794 -45.63595646 44.10552007 -47.65222168 45.96868896 Z " fill="#C6FE56" transform="translate(537.0025482177734,343.9538269042969)"/>
<path d="M0 0 C0.9590625 0.53109375 1.918125 1.0621875 2.90625 1.609375 C20.50875395 12.06733323 34.0327675 27.27584179 44 45 C44.89332031 46.58167969 44.89332031 46.58167969 45.8046875 48.1953125 C61.58624679 77.86464396 63.32899867 109.86303042 63.1953125 142.76171875 C63.19044611 145.49225251 63.18863227 148.22278613 63.18673706 150.95332336 C63.18058013 157.35238954 63.16424985 163.75138541 63.14403808 170.15042096 C63.12149615 177.44938262 63.1106402 184.74834805 63.10064721 192.04733598 C63.07987672 207.03160264 63.04327525 222.01577825 63 237 C47.16 237 31.32 237 15 237 C14.67 222.48 14.34 207.96 14 193 C10.37 196.96 6.74 200.92 3 205 C-16.30971493 225.49800508 -45.92452452 239.01437437 -74.16772461 240.12451172 C-110.70995952 240.92730899 -142.94900856 233.90716349 -170.30737305 208.1418457 C-177.803436 200.85520936 -183.77270033 193.0383926 -189 184 C-189.36319336 183.37399902 -189.72638672 182.74799805 -190.10058594 182.10302734 C-208.01426401 150.49876001 -210.39327452 111.23071869 -201.45849609 76.45947266 C-192.45196549 44.28467839 -170.91635201 17.36735131 -142.04150391 0.88183594 C-98.95175833 -22.80517596 -43.10520616 -24.3702599 0 0 Z M-134.20703125 58.76953125 C-149.83981106 76.31068703 -155.37080139 99.84639098 -154.16845703 122.80664062 C-152.6340269 142.78536574 -144.77957277 163.02725931 -129.34765625 176.27734375 C-110.14419514 191.44328347 -86.38411055 196.32193141 -62.3828125 193.71582031 C-34.29435631 189.73519943 -11.79266739 174.72003159 6 153 C6.89847656 152.07058594 7.79695313 151.14117188 8.72265625 150.18359375 C12.71670412 144.4743059 11.65318502 136.98211105 11.5 130.3125 C11.47977259 128.81689624 11.45967249 127.32129075 11.43969727 125.82568359 C10.93648269 97.65026814 4.69119755 72.94490447 -14.984375 51.875 C-31.87241502 35.6218487 -54.01528341 32.55409362 -76.48828125 32.79296875 C-98.49675849 33.30567159 -119.14320789 42.69782991 -134.20703125 58.76953125 Z " fill="#FFFFFF" transform="translate(1127,402)"/>
<path d="M0 0 C11.05444099 9.32543832 20.31903785 19.22998873 27.36328125 31.88671875 C27.9975 33.005625 28.63171875 34.12453125 29.28515625 35.27734375 C38.42710688 52.38920005 41.73828515 70.5310548 41.55078125 89.82421875 C41.54981445 91.75491211 41.54981445 91.75491211 41.54882812 93.72460938 C41.52409903 99.00289651 41.40303215 103.68796426 40.36328125 108.88671875 C-26.29671875 109.21671875 -92.95671875 109.54671875 -161.63671875 109.88671875 C-155.85696789 133.00572218 -147.5019487 149.02179108 -127.57421875 162.01171875 C-105.597075 175.06465477 -78.24345157 179.38318221 -53.34326172 173.32910156 C-46.34854 171.46598731 -39.50103518 169.17744751 -32.63671875 166.88671875 C-31.03908269 172.22155301 -29.45456575 177.56004202 -27.88208008 182.90234375 C-27.34530704 184.71916393 -26.8049645 186.53493348 -26.26098633 188.34960938 C-25.47967704 190.95825481 -24.71128421 193.57040969 -23.9453125 196.18359375 C-23.69953964 196.99415222 -23.45376678 197.80471069 -23.20054626 198.63983154 C-22.98024246 199.40031799 -22.75993866 200.16080444 -22.53295898 200.94433594 C-22.23650734 201.94361115 -22.23650734 201.94361115 -21.93406677 202.96307373 C-21.57640407 205.27691484 -21.77414683 206.71188811 -22.63671875 208.88671875 C-24.8792388 210.11549686 -26.88165935 211.01801923 -29.26171875 211.88671875 C-29.93323975 212.14163086 -30.60476074 212.39654297 -31.29663086 212.65917969 C-67.58018444 226.07779132 -106.22743626 222.94214803 -141.18847656 207.12353516 C-170.29770257 193.2801649 -192.50331012 169.04771518 -203.63671875 138.88671875 C-215.43496505 104.56454771 -210.19268112 67.51506486 -194.59375 35.34521484 C-188.59776854 23.48932145 -180.80215279 13.49101336 -171.63671875 3.88671875 C-171.05019531 3.22542969 -170.46367188 2.56414062 -169.859375 1.8828125 C-126.9019895 -44.6465219 -46.00959706 -37.41378374 0 0 Z M-141.28710938 37.27539062 C-148.79971961 46.24486016 -158.63671875 59.7585783 -158.63671875 71.88671875 C-107.48671875 71.88671875 -56.33671875 71.88671875 -3.63671875 71.88671875 C-7.99472104 52.27570845 -20.21352298 37.35384724 -37.01171875 26.63671875 C-70.37425347 6.99335718 -114.23640808 6.71161124 -141.28710938 37.27539062 Z " fill="#FFFFFF" transform="translate(2147.63671875,420.11328125)"/>
<path d="M0 0 C29.82550229 26.33479338 41.91412394 62.29117081 44.64266205 101.08423615 C45.23131576 111.75536383 45.05967614 122.4577402 45.015625 133.140625 C45.0107529 135.84445078 45.00894371 138.54827642 45.00704956 141.25210571 C45.00090501 147.57669903 44.98459253 153.90122078 44.96435058 160.22578299 C44.93954144 168.15441437 44.92879759 176.08305808 44.91796875 184.01171875 C44.89865396 198.10943033 44.85856372 212.20698643 44.8203125 226.3046875 C27.6603125 226.3046875 10.5003125 226.3046875 -7.1796875 226.3046875 C-7.19950684 222.70844482 -7.21932617 219.11220215 -7.23974609 215.40698242 C-7.30696426 203.46080783 -7.38450288 191.51472052 -7.46721458 179.56864452 C-7.51706413 172.33313742 -7.56350687 165.0976401 -7.6015625 157.86206055 C-7.63479037 151.54611187 -7.67478394 145.230246 -7.72247756 138.91438943 C-7.74744141 135.57873474 -7.76829535 132.24318576 -7.78303146 128.90746117 C-7.91959235 99.03536754 -9.03454585 71.38547213 -27.1796875 46.3046875 C-27.9221875 45.2528125 -28.6646875 44.2009375 -29.4296875 43.1171875 C-44.78057972 27.41741137 -65.09523676 21.62528561 -86.5546875 21.0546875 C-107.68384786 21.26026852 -127.5054223 26.798923 -143.34765625 41.3828125 C-159.94524213 58.79435249 -165.2751791 83.05624676 -165.38500977 106.30834961 C-165.39490936 107.60659668 -165.40480896 108.90484375 -165.41500854 110.24243164 C-165.4419172 113.78527324 -165.46300225 117.32812797 -165.48301053 120.87101436 C-165.50495726 124.57993222 -165.53230324 128.28881026 -165.55906677 131.99769592 C-165.60887668 139.01334408 -165.65385866 146.02901448 -165.69708914 153.04470593 C-165.74656186 161.03506899 -165.80144261 169.02539209 -165.85676873 177.01571643 C-165.97040902 193.44533785 -166.07657298 209.87499613 -166.1796875 226.3046875 C-183.0096875 226.3046875 -199.8396875 226.3046875 -217.1796875 226.3046875 C-217.2478095 209.88239583 -217.30290236 193.46022765 -217.33512402 177.03783321 C-217.35049289 169.41001713 -217.37138741 161.78229605 -217.40600586 154.15454102 C-217.43621822 147.49435129 -217.45533465 140.83423046 -217.46195298 134.1739741 C-217.46581232 130.65814671 -217.47466413 127.14251615 -217.49687767 123.62675285 C-217.76607939 79.22121394 -210.07375257 38.40133136 -178.8984375 4.96484375 C-133.39942441 -39.55358717 -48.06755614 -41.31402045 0 0 Z " fill="#FFFFFF" transform="translate(1883.1796875,412.6953125)"/>
<path d="M0 0 C1.36237541 -0.00021904 1.36237541 -0.00021904 2.75227356 -0.0004425 C5.72810325 0.00024927 8.70386886 0.00800701 11.6796875 0.01586914 C13.75333624 0.01773593 15.82698542 0.0191586 17.90063477 0.02015686 C23.33885939 0.02396146 28.77705699 0.03377406 34.215271 0.04486084 C40.750742 0.0569253 47.28622208 0.061487 53.82170105 0.06731415 C63.73271528 0.07698701 73.64367031 0.09615795 83.5546875 0.11352539 C83.5546875 15.62352539 83.5546875 31.13352539 83.5546875 47.11352539 C78.64078125 47.16250977 73.726875 47.21149414 68.6640625 47.26196289 C65.52862674 47.29739845 62.39321637 47.3333864 59.2578125 47.37133789 C54.29431021 47.43136522 49.33084296 47.48947938 44.3671875 47.53540039 C40.359986 47.57260183 36.3529836 47.61904988 32.3459549 47.6715889 C30.82639349 47.68994963 29.30678971 47.70512312 27.78716278 47.71686935 C8.51342685 47.27747688 8.51342685 47.27747688 -7.97265625 55.64868164 C-13.3671741 62.51301015 -14.24064881 70.61668251 -13.4453125 79.11352539 C-11.77324283 89.74570754 -3.95561164 96.45603531 4.34790039 102.53100586 C13.1122573 108.74379034 22.25952216 114.31486509 31.46044922 119.84936523 C52.9908243 132.84590081 76.15121748 148.30027842 82.640625 174.17993164 C86.56194058 192.60425087 83.75106635 211.34286161 73.5546875 227.11352539 C61.4978075 243.19694834 44.12867593 251.27850691 24.5546875 254.11352539 C22.34135661 254.19931441 20.12578927 254.23556331 17.91079712 254.23377991 C17.2686364 254.23463433 16.62647568 254.23548876 15.96485555 254.23636907 C13.82761559 254.23800733 11.6904553 254.23252979 9.55322266 254.22705078 C8.0154114 254.22676853 6.4776 254.22692739 4.93978882 254.22749329 C0.77497583 254.22777976 -3.38980826 254.22190717 -7.55461454 254.21491933 C-11.91080802 254.20866092 -16.26700218 254.20808002 -20.62319946 254.20689392 C-28.86784321 254.20378794 -37.11247367 254.19558443 -45.35711157 254.18554443 C-54.74522021 254.17436053 -64.13332949 254.1688671 -73.52144313 254.163849 C-92.82940865 254.15340121 -112.13735595 254.13506483 -131.4453125 254.11352539 C-131.4453125 238.60352539 -131.4453125 223.09352539 -131.4453125 207.11352539 C-127.6714209 207.09894287 -123.8975293 207.08436035 -120.00927734 207.06933594 C-107.50425213 207.01887343 -94.99935423 206.95240539 -82.49445152 206.87781048 C-74.91688815 206.83299526 -67.33937029 206.79354842 -59.76171875 206.76708984 C-53.15097087 206.74399336 -46.54036874 206.7104674 -39.92973673 206.66482383 C-36.43494161 206.64104722 -32.94028943 206.62221729 -29.4454155 206.61591148 C-25.52774153 206.60864619 -21.61042304 206.57807768 -17.69287109 206.54589844 C-15.9870562 206.54805107 -15.9870562 206.54805107 -14.2467804 206.55024719 C-3.74957746 206.42925961 7.81484049 205.78691897 16.0703125 198.66040039 C21.62964978 192.86698575 21.92002782 186.70291524 21.93310547 178.96655273 C21.74842799 171.53104306 19.68486639 166.35932994 14.52563477 161.00952148 C7.90919368 155.01313466 0.82642319 149.98219448 -6.6328125 145.11352539 C-7.84117883 144.31560508 -9.04926567 143.51726137 -10.25708008 142.71850586 C-16.29471652 138.74072213 -22.37813314 134.86811634 -28.6328125 131.23852539 C-48.12999545 119.78673173 -67.11662094 104.74664268 -73.4453125 82.11352539 C-76.45892643 68.85445967 -76.13461261 52.55554619 -70.4453125 40.11352539 C-69.80916016 38.69426758 -69.80916016 38.69426758 -69.16015625 37.24633789 C-65.65858008 30.20417077 -60.96759274 24.66528399 -55.4453125 19.11352539 C-54.66800781 18.28401367 -54.66800781 18.28401367 -53.875 17.43774414 C-40.16556681 4.1230852 -18.31260748 -0.07829978 0 0 Z " fill="#FFFFFF" transform="translate(1398.4453125,384.886474609375)"/>
<path d="M0 0 C0.60038086 0.31195313 1.20076172 0.62390625 1.81933594 0.9453125 C9.46566028 4.96238839 16.24757597 9.4844207 22.79296875 15.1171875 C25.0548687 17.12180947 25.0548687 17.12180947 28 19 C28 22 28 22 26 24.0625 C25.54109375 24.50078125 25.0821875 24.9390625 24.609375 25.390625 C15.05828412 34.94171588 8.90756121 46.99851917 3 59 C-0.21291865 57.58253589 -2.90823485 55.66364177 -5.71826172 53.57299805 C-27.35851471 37.50441337 -52.92746962 31.15092283 -79.72070312 34.77124023 C-101.00272458 38.07433033 -121.62886186 48.00633509 -134.6875 65.6875 C-142.95151794 78.3174142 -149.3430664 92.69892163 -150 108 C-150.0515625 109.06089844 -150.103125 110.12179687 -150.15625 111.21484375 C-150.67729925 131.90484114 -145.59859897 150.36984936 -133 167 C-132.39542969 167.80050781 -131.79085937 168.60101562 -131.16796875 169.42578125 C-118.26116946 185.15849027 -97.34053412 194.04228425 -77.56640625 196.68359375 C-51.27822245 199.01584226 -24.97626218 193.56745937 -4.3125 176.4375 C-3.54550781 175.75558594 -2.77851562 175.07367187 -1.98828125 174.37109375 C-1.33214844 173.91863281 -0.67601562 173.46617187 0 173 C3 174 3 174 4.69140625 177.10546875 C5.32060729 178.46360986 5.94391953 179.82448884 6.5625 181.1875 C9.33392784 187.00422254 12.3617855 192.39080821 16.125 197.625 C16.52017822 198.17953857 16.91535645 198.73407715 17.32250977 199.30541992 C20.23177209 203.25374731 23.48284767 206.6051834 27 210 C21.6246061 223.14313344 0.3329129 231.33890092 -11.93725586 236.60888672 C-45.49455055 250.42923112 -85.97913138 251.88771078 -119.74902344 237.85791016 C-136.64067249 230.50404828 -150.66588229 221.74928798 -164 209 C-164.67289063 208.39027344 -165.34578125 207.78054688 -166.0390625 207.15234375 C-189.31409346 185.3146155 -200.87451713 152.08886089 -202.28125 120.8125 C-202.765991 102.68284877 -200.30249659 85.0167408 -194 68 C-193.56945312 66.83339844 -193.13890625 65.66679687 -192.6953125 64.46484375 C-182.90385643 39.93088461 -165.07296097 19.26404336 -143 5 C-141.92363281 4.30132812 -140.84726562 3.60265625 -139.73828125 2.8828125 C-97.98441823 -22.5153953 -42.89232233 -22.44476291 0 0 Z " fill="#FFFFFF" transform="translate(915,401)"/>
<path d="M0 0 C17.16 0 34.32 0 52 0 C52.02258369 42.02302682 52.04049733 84.04605219 52.05106533 126.06908387 C52.05231611 131.02481569 52.05361042 135.98054749 52.05493164 140.9362793 C52.05519395 141.92291986 52.05545626 142.90956043 52.05572652 143.92609919 C52.06008359 159.92361197 52.06797135 175.92112118 52.0771528 191.91863184 C52.0864883 208.32076644 52.09205539 224.72289916 52.09408849 241.1250363 C52.09546394 251.25455494 52.09981567 261.38406348 52.10791647 271.51357902 C52.11318265 278.44989706 52.11480459 285.38620983 52.11350138 292.32252973 C52.1128578 296.33066295 52.11387775 300.33877846 52.11920547 304.34690857 C52.12403955 308.0101909 52.1243386 311.67344345 52.12089889 315.33672709 C52.12027027 317.30241679 52.12461193 319.2681061 52.12908131 321.23379081 C52.12709026 322.3853024 52.12509921 323.53681399 52.12304783 324.72321987 C52.12361741 326.2263428 52.12361741 326.2263428 52.1241985 327.75983185 C52 330 52 330 51 331 C34.17 331 17.34 331 0 331 C0 221.77 0 112.54 0 0 Z " fill="#FFFFFF" transform="translate(1538,308)"/>
<path d="M0 0 C2.0864997 0.00535874 4.17278419 0.00003006 6.25927734 -0.00634766 C12.77765435 -0.00926494 19.14706147 0.08401138 25.59130859 1.13037109 C24.32673805 4.92408273 22.96267317 5.40991593 19.65380859 7.56787109 C8.35130207 15.63481552 -2.55298865 29.27966472 -4.97119141 43.41943359 C-5.15681641 44.85416016 -5.15681641 44.85416016 -5.34619141 46.31787109 C-5.93994141 48.93896484 -5.93994141 48.93896484 -7.40869141 51.13037109 C-11.53469322 52.92408648 -15.60518677 53.94939954 -19.97119141 54.97412109 C-33.01108446 58.10636116 -44.53536111 68.16801332 -51.75244141 79.23193359 C-62.98581325 98.89033432 -65.50070238 119.71266866 -65.61401367 142.05908203 C-65.62391327 143.28978424 -65.63381287 144.52048645 -65.64401245 145.78848267 C-65.66995422 149.122371 -65.69191527 152.45623854 -65.71201444 155.79016399 C-65.73408288 159.2895161 -65.76136818 162.78882771 -65.78807068 166.28814697 C-65.83771868 172.89634453 -65.88275936 179.50456491 -65.92609304 186.11280656 C-65.97570592 193.64380267 -66.03053379 201.17475809 -66.08577263 208.7057147 C-66.19916373 224.18056381 -66.30540571 239.65545074 -66.40869141 255.13037109 C-83.56869141 255.13037109 -100.72869141 255.13037109 -118.40869141 255.13037109 C-118.4768119 237.9430476 -118.53190543 220.75584208 -118.56412792 203.56842041 C-118.57949715 195.58527745 -118.60039242 187.60222526 -118.63500977 179.61914062 C-118.66522096 172.648741 -118.6843383 165.67840721 -118.69095689 158.70794392 C-118.69481641 155.02832686 -118.70366954 151.34889786 -118.72588158 147.66934204 C-118.84960992 126.33356948 -118.47525606 104.82549605 -112.65869141 84.13037109 C-112.40192627 83.18943604 -112.14516113 82.24850098 -111.88061523 81.27905273 C-103.68637167 52.37370453 -85.67863119 28.01268458 -59.31884766 13.16552734 C-41.06979895 3.38615466 -20.4855212 -0.06261739 0 0 Z " fill="#FFFFFF" transform="translate(1320.40869140625,383.86962890625)"/>
<path d="M0 0 C17.16 0 34.32 0 52 0 C52.02202643 31.32192509 52.04049789 62.64384274 52.05106533 93.96577316 C52.05231611 97.65971793 52.05361042 101.35366268 52.05493164 105.04760742 C52.05519395 105.78303635 52.05545626 106.51846527 52.05572652 107.27617992 C52.06008334 119.19978169 52.06797095 131.12337866 52.0771528 143.04697757 C52.08648902 155.27258626 52.09205554 167.49819243 52.09408849 179.72380453 C52.09546379 187.2737296 52.09981472 194.8236411 52.10791647 202.37356199 C52.11380424 208.15308919 52.11445904 213.93260762 52.11310768 219.71213722 C52.1133842 222.09024006 52.11539186 224.46834338 52.11920547 226.84644318 C52.124136 230.07785956 52.12300067 233.30921657 52.12025452 236.54063416 C52.12316736 237.49489459 52.1260802 238.44915503 52.12908131 239.43233246 C52.11412121 245.88587879 52.11412121 245.88587879 51 247 C34.17 247 17.34 247 0 247 C0 165.49 0 83.98 0 0 Z " fill="#FFFFFF" transform="translate(1602,392)"/>
<path d="M0 0 C1.34771484 -0.02320313 1.34771484 -0.02320313 2.72265625 -0.046875 C10.89376898 0.00070062 17.65974654 2.65974654 23.5 8.5 C28.08017771 14.70205367 29.86920514 20.80098693 29.5 28.5 C28.43796574 34.88152167 26.2093596 40.93052237 21.5 45.5 C12.7836536 51.66042528 3.45814563 53.84263193 -7.046875 52.0703125 C-14.24455779 50.25971528 -20.64370828 46.65819265 -24.9140625 40.44140625 C-28.80422779 33.03889748 -29.47032013 25.69378051 -27.4375 17.5625 C-25.20253181 10.70093879 -21.17181092 5.86610104 -14.91796875 2.3046875 C-9.99234876 -0.03954591 -5.37737641 -0.09258037 0 0 Z " fill="#FFFFFF" transform="translate(1627.5,301.5)"/>
</svg>
